<?xml version="1.0" encoding="utf-8"?>
<!-- Generator: Adobe Illustrator 19.1.0, SVG Export Plug-In . SVG Version: 6.00 Build 0)  -->
<svg version="1.1" id="Layer_1" xmlns="http://www.w3.org/2000/svg" xmlns:xlink="http://www.w3.org/1999/xlink" x="0px" y="0px"
	 viewBox="-156.7 288.9 293.4 216.1" style="enable-background:new -156.7 288.9 293.4 216.1;" xml:space="preserve">
<style type="text/css">
	.st0{fill:#3BD23D;}
	.st1{fill:#FFFFFF;}
</style>
<g>
	<polygon class="st0" points="108.5,288.9 98.3,288.9 -116,288.9 -116,288.9 -156.7,329.6 -156.7,465.7 -156.7,476.8 -156.7,505 
		-128.5,505 -118.3,505 96,505 96,505 136.7,464.3 136.7,328.2 136.7,317.1 136.7,288.9 	"/>
	<path class="st1" d="M-47.5,458.1c-19.3,0-32.8-5.2-40.4-15.6c-7.6-10.4-11.4-26.9-11.4-49.3c0-22.5,3.9-39.2,11.6-50.1
		c7.7-10.9,21.2-16.4,40.2-16.4c19.1,0,32.5,5.4,40.1,16.3c7.7,10.8,11.5,27.5,11.5,50.1c0,14.9-1.6,26.9-4.7,36
		c-3.2,9.2-8.3,16.2-15.5,21l15.6,25.1l-19.1,8.9L-36.1,457C-38.5,457.8-42.3,458.1-47.5,458.1z M-71.6,429.2
		c4.2,7.2,12.3,10.9,24.2,10.9s19.9-3.6,24.1-10.7c4.1-7.1,6.2-19.2,6.2-36.1c0-17-2.1-29.3-6.4-37c-4.3-7.7-12.2-11.5-23.9-11.5
		c-11.6,0-19.6,3.8-24,11.5c-4.3,7.7-6.5,19.9-6.5,36.8C-77.9,409.9-75.8,422-71.6,429.2z"/>
	<path class="st1" d="M75.7,378.1H50.1V419c0,7.6,0.6,12.6,1.7,15.1c1.1,2.5,4,3.7,8.5,3.7l15.2-0.6l0.9,16.2
		c-8.3,1.6-14.6,2.4-19,2.4c-10.5,0-17.7-2.4-21.6-7.2c-3.9-4.8-5.9-13.9-5.9-27.3v-43.1H15.8v-17.3H30v-26.9h20.1v26.9h25.6V378.1z
		"/>
</g>
</svg>
